<!DOCTYPE svg PUBLIC "-//W3C//DTD SVG 1.1//EN" "http://www.w3.org/Graphics/SVG/1.1/DTD/svg11.dtd">
<svg class="close" viewBox="0 0 16 16" version="1.1" xmlns="http://www.w3.org/2000/svg" xmlns:xlink="http://www.w3.org/1999/xlink" xml:space="preserve">
	<path fill-rule="evenodd"
			d="	M3,0 a3,3 0,0,0 -3,3
			v.3 h16 v-.3
			a3,3 0,0,0 -3,-3 z

			M0,3 v10
			a3,3 0,0,0 3,3 h10
			a3,3 0,0,0 3,-3 v-10 z

			M1,5h4v2h-1v-1h-2v2h3v5h-4v-3h1v2h2v-3h-3z
			M6,5h4v4h-3v4h-1zm1,1h2v2h-2z
			M11,5h4v2h-1v-1h-2v6h2v-3h-1v-1h2v5h-4z">
	</path>
</svg>
